#!OML:ASF F:\VICON\USERDATA\INSTALL\rory3\rory3.ASF
:FULLY-SPECIFIED
:DEGREES
620
root 6.50361 18.2704 12.7919 1.70948 -64.3599 1.52675
lowerback 10.9709 -4.58001 -0.512638
upperback 1.10485 -6.09759 1.52052
thorax -4.74875 -3.00129 2.77021
lowerneck -12.6474 -5.66987 -11.1468
upperneck 36.3372 -10.1113 8.65201
head 16.1182 -5.11735 3.81196
rclavicle -4.89507e-014 -6.36111e-015
rhumerus -41.9029 23.8107 -99.6247
rradius 94.3346
rwrist -8.39693
rhand -22.8128 13.5689
rfingers 7.12502
rthumb 3.62393 -16.38
lclavicle -4.89507e-014 -6.36111e-015
lhumerus -39.4596 -34.4312 105.477
lradius 90.625
lwrist 9.39549
lhand -17.0329 33.4779
lfingers 7.12502
lthumb 9.20359 63.2571
rfemur -16.2016 -11.2131 24.7464
rtibia 23.1617
rfoot -8.27525 -10.726
rtoes 24.9601
lfemur 4.31824 -4.54654 -17.2752
ltibia 31.6559
lfoot 9.26322 -0.3159
ltoes -19.5236
621
root 6.40495 18.2709 12.7976 1.81143 -64.8998 1.19653
lowerback 11.1189 -4.44946 -0.314985
upperback 1.13823 -5.89948 1.55381
thorax -4.82118 -2.90639 2.67969
lowerneck -12.5743 -5.69551 -11.2765
upperneck 36.2331 -10.1564 8.77575
head 16.0732 -5.13978 3.87966
rclavicle -1.14301e-014 -5.96354e-015
rhumerus -42.0061 23.9245 -99.5167
rradius 94.4937
rwrist -8.45427
rhand -22.7896 13.2648
rfingers 7.12502
rthumb 3.64632 -16.6838
lclavicle -1.14301e-014 -5.96354e-015
lhumerus -39.469 -34.5299 105.576
lradius 90.6477
lwrist 9.23025
lhand -17.2107 33.6834
lfingers 7.12502
lthumb 9.03199 63.4701
rfemur -15.5125 -11.1194 24.9684
rtibia 22.8645
rfoot -8.36439 -10.3013
rtoes 24.4481
lfemur 3.25239 -4.6807 -17.1545
ltibia 34.1628
lfoot 10.1553 -1.22264
ltoes -19.5214
622
root 6.30594 18.2671 12.8053 2.2321 -65.3113 0.513991
lowerback 11.1979 -4.34582 0.142641
upperback 1.21181 -5.7085 1.52963
thorax -4.8431 -2.8216 2.37764
lowerneck -12.5643 -5.69703 -11.381
upperneck 36.1967 -10.2466 9.07317
head 16.0972 -5.1571 4.0126
rclavicle 3.99557e-014 -1.76918e-014
rhumerus -42.0724 23.9091 -99.4637
rradius 94.645
rwrist -8.61954
rhand -22.7944 13.3331
rfingers 7.12502
rthumb 3.64163 -16.6155
lclavicle 3.99557e-014 -1.76918e-014
lhumerus -39.5015 -34.7603 105.578
lradius 90.7366
lwrist 9.15443
lhand -17.0544 33.6564
lfingers 7.12502
lthumb 9.18284 63.4364
rfemur -14.8078 -11.3274 25.3385
rtibia 22.5209
rfoot -8.34879 -9.62624
rtoes 23.4907
lfemur 2.18305 -4.66041 -16.8129
ltibia 36.6014
lfoot 10.9291 -2.99877
ltoes -21.7432
623
root 6.20713 18.2626 12.8165 2.59436 -65.7459 -0.0912366
lowerback 11.2013 -4.23853 0.567215
upperback 1.31431 -5.51786 1.51812
thorax -4.78512 -2.73755 2.09794
lowerneck -12.5836 -5.6861 -11.3392
upperneck 36.1565 -10.2606 9.14321
head 16.0858 -5.14723 4.0321
rclavicle -2.89232e-014 -1.53064e-014
rhumerus -42.0433 23.9243 -99.3269
rradius 94.6632
rwrist -8.72112
rhand -22.6222 13.6375
rfingers 7.12502
rthumb 3.80799 -16.3082
lclavicle -2.89232e-014 -1.53064e-014
lhumerus -39.3992 -34.9345 105.586
lradius 90.7328
lwrist 9.1213
lhand -16.9551 33.4788
lfingers 7.12502
lthumb 9.27865 63.2547
rfemur -14.0922 -11.4539 25.6572
rtibia 22.1526
rfoot -8.35588 -9.06436
rtoes 23.0347
lfemur 1.12163 -4.70729 -16.5373
ltibia 38.9648
lfoot 11.6944 -4.74113
ltoes -21.515
624
root 6.10776 18.2624 12.8264 2.83651 -66.255 -0.595535
lowerback 11.2513 -4.16825 0.77797
upperback 1.42329 -5.39862 1.6024
thorax -4.71288 -2.68444 2.04961
lowerneck -12.6582 -5.668 -11.185
upperneck 36.1303 -10.1411 8.84423
head 16.037 -5.10762 3.89159
rclavicle -1.08835e-014 -3.97569e-015
rhumerus -41.9717 24.3693 -99.1228
rradius 94.6914
rwrist -8.83452
rhand -22.7339 13.6671
rfingers 7.12502
rthumb 3.70004 -16.2805
lclavicle -1.08835e-014 -3.97569e-015
lhumerus -39.1601 -34.7831 105.583
lradius 90.6564
lwrist 9.03671
lhand -16.9587 33.1838
lfingers 7.12502
lthumb 9.27519 62.9598
rfemur -13.3171 -11.3564 25.8981
rtibia 21.7706
rfoot -8.44955 -8.73426
rtoes 23.4459
lfemur 0.125056 -4.88248 -16.3545
ltibia 41.2225
lfoot 12.288 -5.7397
ltoes -18.4057
625
root 6.00868 18.2662 12.8336 3.06257 -66.7186 -1.04428
lowerback 11.3173 -4.08277 0.937444
upperback 1.48727 -5.2645 1.67163
thorax -4.69325 -2.62197 2.01543
lowerneck -12.6927 -5.69175 -11.1392
upperneck 36.1642 -10.1237 8.66475
head 16.0428 -5.11546 3.80689
rclavicle -1.29707e-014 3.97569e-015
rhumerus -41.8498 24.5837 -98.9432
rradius 94.7019
rwrist -8.91183
rhand -22.8359 13.472
rfingers 7.12502
rthumb 3.60156 -16.4773
lclavicle -1.29707e-014 3.97569e-015
lhumerus -39.0526 -34.7463 105.609
lradius 90.6313
lwrist 8.95215
lhand -17.1823 33.041
lfingers 7.12502
lthumb 9.05941 62.8265
rfemur -12.5719 -11.0088 26.1007
rtibia 21.4045
rfoot -8.64512 -8.64777
rtoes 24.6258
lfemur -0.905799 -5.17264 -16.206
ltibia 43.354
lfoot 12.3346 -6.12484
ltoes -14.9332
626
root 5.90896 18.2667 12.8422 3.29608 -67.1194 -1.47286
lowerback 11.3484 -3.96373 1.16601
upperback 1.53862 -5.08013 1.6761
thorax -4.68021 -2.53572 1.86585
lowerneck -12.6563 -5.74224 -11.1523
upperneck 36.1471 -10.2326 8.7355
head 16.0484 -5.15594 3.81992
rclavicle -1.19768e-014 1.19271e-015
rhumerus -41.6732 24.4807 -98.806
rradius 94.6488
rwrist -8.96744
rhand -22.7072 13.5022
rfingers 7.12502
rthumb 3.72583 -16.445
lclavicle -1.19768e-014 1.19271e-015
lhumerus -39.0149 -34.9275 105.606
lradius 90.6564
lwrist 8.87771
lhand -17.4389 33.4839
lfingers 7.12502
lthumb 8.81185 63.28
rfemur -11.8553 -10.6217 26.2804
rtibia 21.0539
rfoot -8.90285 -8.58529
rtoes 25.7958
lfemur -1.93881 -5.49822 -16.0864
ltibia 45.3467
lfoot 11.7444 -6.48162
ltoes -10.8109
627
root 5.81187 18.2624 12.8476 3.49231 -67.5203 -1.89031
lowerback 11.4434 -3.85802 1.32864
upperback 1.58556 -4.9191 1.70113
thorax -4.6979 -2.45951 1.78254
lowerneck -12.5875 -5.75599 -11.1281
upperneck 36.101 -10.2572 8.71753
head 16.0086 -5.16723 3.80298
rclavicle 1.51573e-014 -1.31198e-014
rhumerus -41.6337 24.681 -98.7047
rradius 94.6837
rwrist -9.12387
rhand -22.7072 13.7332
rfingers 7.12502
rthumb 3.72589 -16.214
lclavicle 1.51573e-014 -1.31198e-014
lhumerus -38.9687 -34.935 105.604
lradius 90.6865
lwrist 8.76993
lhand -17.5728 33.777
lfingers 7.12502
lthumb 8.68258 63.5784
rfemur -11.1455 -10.3173 26.4681
rtibia 20.7423
rfoot -9.0834 -8.47903
rtoes 26.1056
lfemur -2.92766 -5.77307 -15.9759
ltibia 47.1949
lfoot 10.9104 -6.68697
ltoes -8.95067
628
root 5.71483 18.2603 12.8505 3.81068 -67.9687 -2.44675
lowerback 11.5582 -3.76343 1.47078
upperback 1.62895 -4.7731 1.76566
thorax -4.72421 -2.39031 1.75521
lowerneck -12.493 -5.74029 -11.1235
upperneck 36.0389 -10.2129 8.65452
head 15.9419 -5.15855 3.78285
rclavicle -2.98177e-016 -1.19271e-015
rhumerus -41.5412 25.0106 -98.6185
rradius 94.6687
rwrist -9.27319
rhand -22.6907 13.6495
rfingers 7.12502
rthumb 3.74178 -16.2974
lclavicle -2.98177e-016 -1.19271e-015
lhumerus -38.9161 -34.7763 105.643
lradius 90.7007
lwrist 8.73209
lhand -17.4062 33.6265
lfingers 7.12502
lthumb 8.84335 63.4212
rfemur -10.4405 -9.88011 26.7253
rtibia 20.4771
rfoot -9.3445 -8.53377
rtoes 26.632
lfemur -3.88929 -5.99548 -15.7723
ltibia 48.9121
lfoot 9.99305 -6.78488
ltoes -7.79715
629
root 5.61701 18.2574 12.8554 3.97088 -68.4899 -2.85533
lowerback 11.696 -3.65224 1.52556
upperback 1.65931 -4.61391 1.85155
thorax -4.76794 -2.31296 1.79842
lowerneck -12.4288 -5.69574 -11.4092
upperneck 36.093 -10.1564 8.82954
head 15.9799 -5.1589 3.92445
rclavicle -2.01766e-014 1.86858e-014
rhumerus -41.4778 25.3815 -98.4766
rradius 94.6426
rwrist -9.30612
rhand -22.8529 13.4578
rfingers 7.12502
rthumb 3.58519 -16.4918
lclavicle -2.01766e-014 1.86858e-014
lhumerus -38.9001 -34.5661 105.778
lradius 90.6891
lwrist 8.70574
lhand -17.528 33.5711
lfingers 7.12502
lthumb 8.72583 63.3707
rfemur -9.72582 -9.35925 26.9084
rtibia 20.2527
rfoot -9.60084 -8.65966
rtoes 27.07
lfemur -4.80561 -6.13307 -15.6481
ltibia 50.501
lfoot 9.03177 -6.95961
ltoes -6.13501
630
root 5.52205 18.2494 12.8655 4.00049 -68.9969 -3.10183
lowerback 11.8207 -3.53652 1.66418
upperback 1.67604 -4.44137 1.84074
thorax -4.83332 -2.23038 1.69143
lowerneck -12.3433 -5.6825 -11.6058
upperneck 36.1481 -10.1877 9.0236
head 16.0216 -5.18319 4.04299
rclavicle -3.32964e-015 7.95139e-016
rhumerus -41.4943 25.7723 -98.3479
rradius 94.7016
rwrist -9.51127
rhand -22.9949 13.6198
rfingers 7.12502
rthumb 3.44802 -16.3321
lclavicle -3.32964e-015 7.95139e-016
lhumerus -38.9496 -34.4396 105.877
lradius 90.6815
lwrist 8.61507
lhand -17.6274 33.4702
lfingers 7.12502
lthumb 8.62987 63.2738
rfemur -9.04432 -9.11132 27.0117
rtibia 20.0221
rfoot -9.75185 -8.50383
rtoes 26.712
lfemur -5.75227 -6.26001 -15.645
ltibia 51.9471
lfoot 8.10156 -7.25089
ltoes -4.53235
631
root 5.42856 18.2393 12.8772 4.27447 -69.4495 -3.59358
lowerback 11.9185 -3.41051 1.94932
upperback 1.71136 -4.23905 1.79679
thorax -4.87671 -2.13613 1.46019
lowerneck -12.1738 -5.72793 -11.4964
upperneck 36.0333 -10.281 8.98697
head 15.9255 -5.21611 3.98942
rclavicle -3.81667e-014 1.70955e-014
rhumerus -41.38 25.9594 -98.2203
rradius 94.6993
rwrist -9.57488
rhand -23.1505 13.9505
rfingers 7.12502
rthumb 3.29776 -16.0037
lclavicle -3.81667e-014 1.70955e-014
lhumerus -38.972 -34.4015 105.909
lradius 90.6737
lwrist 8.51059
lhand -17.307 33.4581
lfingers 7.12502
lthumb 8.93913 63.2487
rfemur -8.43188 -9.12718 27.195
rtibia 19.8596
rfoot -9.90417 -8.07951
rtoes 26.3766
lfemur -6.73032 -6.40256 -15.5535
ltibia 53.2337
lfoot 7.30544 -7.57827
ltoes -3.19858
632
root 5.33457 18.2271 12.8859 4.5703 -69.8768 -4.09006
lowerback 12.0252 -3.30206 2.16871
upperback 1.73426 -4.06673 1.76337
thorax -4.93036 -2.05549 1.28166
lowerneck -12.0626 -5.74057 -11.3164
upperneck 35.9848 -10.316 8.87102
head 15.8566 -5.2245 3.90038
rclavicle 5.27276e-014 6.75868e-015
rhumerus -41.1792 26.0465 -98.1444
rradius 94.5532
rwrist -9.3767
rhand -23.192 13.9757
rfingers 7.12502
rthumb 3.25765 -15.9791
lclavicle 5.27276e-014 6.75868e-015
lhumerus -39.0173 -34.3355 105.907
lradius 90.6715
lwrist 8.34938
lhand -17.2571 33.6963
lfingers 7.12502
lthumb 8.98726 63.4848
rfemur -7.85335 -8.83807 27.4053
rtibia 19.7782
rfoot -10.0366 -8.05626
rtoes 25.4905
lfemur -7.69501 -6.58249 -15.4514
ltibia 54.3242
lfoot 6.50125 -8.25172
ltoes -3.93999
633
root 5.24389 18.2123 12.8891 4.42205 -70.2284 -4.04942
lowerback 12.1234 -3.22273 2.12027
upperback 1.72868 -3.96634 1.72268
thorax -4.99034 -2.00529 1.2564
lowerneck -12.0524 -5.71805 -11.3011
upperneck 36.0937 -10.3256 8.89668
head 15.9114 -5.2292 3.91037
rclavicle 2.22639e-014 1.27222e-014
rhumerus -41.0116 26.2469 -98.102
rradius 94.4122
rwrist -9.20377
rhand -22.8141 13.5896
rfingers 7.12502
rthumb 3.6226 -16.3593
lclavicle 2.22639e-014 1.27222e-014
lhumerus -39.0608 -34.1977 105.881
lradius 90.6694
lwrist 8.34814
lhand -17.3507 33.552
lfingers 7.12502
lthumb 8.89697 63.3444
rfemur -7.36821 -8.41878 27.4506
rtibia 19.7695
rfoot -10.2212 -8.29296
rtoes 24.7144
lfemur -8.72519 -6.81623 -15.5068
ltibia 55.2731
lfoot 5.42742 -9.34789
ltoes -7.11694
634
root 5.13713 18.2034 12.9144 4.17258 -70.8364 -4.07297
lowerback 12.1275 -3.05298 2.24732
upperback 1.8184 -3.73255 1.65281
thorax -4.91145 -1.89363 1.07094
lowerneck -11.9807 -5.72451 -11.3996
upperneck 36.1416 -10.3811 9.01564
head 15.9437 -5.25783 3.97295
rclavicle 9.99887e-014 -3.26007e-014
rhumerus -40.9546 26.5565 -97.9838
rradius 94.4437
rwrist -9.24059
rhand -22.7583 13.311
rfingers 7.12502
rthumb 3.67649 -16.6371
lclavicle 9.99887e-014 -3.26007e-014
lhumerus -39.1262 -34.127 105.974
lradius 90.6782
lwrist 8.4346
lhand -17.4811 33.5536
lfingers 7.12502
lthumb 8.77114 63.3514
rfemur -6.69904 -8.21245 27.3281
rtibia 19.8142
rfoot -10.5307 -7.96545
rtoes 24.4436
lfemur -9.41499 -7.02841 -15.7793
ltibia 56.054
lfoot 4.45558 -9.58412
ltoes -8.87229
